Coordinates
version=1
nRows=54
nColumns=12
inDegrees=yes

Units are S.I. units (second, meters, Newtons, ...)
Angles are in degrees

endheader
time	SC_y	SC_z	SC_x	AC_y	AC_z	AC_x	GH_y	GH_z	GH_yy	EL_x	PS_y
       0.0              -54.48          26.92           39.1          65.39          2.057           17.0         -25.47          73.72         -95.93          125.0          54.93
   0.01335              -54.48          26.92           39.1          65.39          2.055           17.0         -25.46          73.71          -95.9          125.0          54.92
    0.0267              -54.48          26.92           39.1          65.39          2.052           17.0         -25.44          73.69         -95.87          125.0          54.92
   0.04004              -54.48          26.92           39.1          65.38          2.049           17.0         -25.42          73.68         -95.83          125.0          54.92
   0.05339              -54.48          26.92           39.1          65.38          2.046          16.99          -25.4          73.67          -95.8          125.0          54.92
   0.06674              -54.48          26.92           39.1          65.38          2.043          16.99         -25.38          73.65         -95.76          124.9          54.92
   0.08009              -54.47          26.92           39.1          65.37           2.04          16.99         -25.35          73.64         -95.71          124.9          54.91
   0.09344              -54.47          26.92           39.1          65.37          2.036          16.98         -25.33          73.62         -95.67          124.9          54.91
    0.1068              -54.47          26.92           39.1          65.36          2.032          16.98          -25.3          73.61         -95.62          124.9          54.91
    0.1201              -54.47          26.92           39.1          65.36          2.028          16.97         -25.27          73.59         -95.57          124.8           54.9
    0.1335              -54.47          26.92           39.1          65.35          2.024          16.97         -25.24          73.57         -95.51          124.8           54.9
    0.1468              -54.47          26.92          39.09          65.35          2.019          16.96         -25.21          73.55         -95.45          124.8           54.9
    0.1602              -54.46          26.92          39.09          65.34          2.014          16.96         -25.17          73.53         -95.38          124.7          54.89
    0.1735              -54.46          26.92          39.09          65.34          2.009          16.95         -25.13           73.5         -95.31          124.7          54.89
    0.1869              -54.46          26.92          39.09          65.33          2.003          16.95         -25.09          73.48         -95.24          124.7          54.89
    0.2002              -54.46          26.92          39.09          65.32          1.996          16.94         -25.04          73.45         -95.15          124.6          54.88
    0.2136              -54.45          26.93          39.09          65.31          1.989          16.93         -24.99          73.42         -95.06          124.6          54.88
    0.2269              -54.45          26.93          39.08           65.3          1.981          16.92         -24.94          73.38         -94.96          124.5          54.87
    0.2403              -54.45          26.93          39.08          65.29          1.973          16.91         -24.88          73.34         -94.86          124.5          54.86
    0.2536              -54.44          26.93          39.08          65.28          1.964           16.9         -24.82           73.3         -94.74          124.4          54.86
     0.267              -54.44          26.93          39.08          65.27          1.954          16.89         -24.75          73.26         -94.61          124.3          54.85
    0.2803              -54.43          26.93          39.07          65.26          1.943          16.88         -24.67          73.21         -94.47          124.3          54.84
    0.2937              -54.43          26.93          39.07          65.24           1.93          16.87         -24.58          73.16         -94.31          124.2          54.83
     0.307              -54.42          26.93          39.07          65.23          1.917          16.85         -24.49           73.1         -94.14          124.1          54.82
    0.3204              -54.41          26.93          39.06          65.21          1.902          16.84         -24.38          73.03         -93.94          124.0          54.81
    0.3337              -54.41          26.94          39.06          65.19          1.885          16.82         -24.26          72.96         -93.73          123.9           54.8
     0.347               -54.4          26.94          39.05          65.16          1.866           16.8         -24.13          72.87         -93.49          123.7          54.78
    0.3604              -54.39          26.94          39.05          65.14          1.845          16.77         -23.98          72.78         -93.21          123.6          54.77
    0.3737              -54.38          26.94          39.04          65.11          1.821          16.75         -23.81          72.67         -92.91          123.4          54.75
    0.3871              -54.37          26.95          39.03          65.08          1.794          16.72         -23.62          72.55         -92.56          123.2          54.73
    0.4004              -54.35          26.95          39.02          65.04          1.763          16.68          -23.4          72.41         -92.16          123.0          54.71
    0.4138              -54.34          26.95          39.01           65.0          1.727          16.65         -23.15          72.26          -91.7          122.8          54.68
    0.4271              -54.32          26.96           39.0          64.95          1.686           16.6         -22.86          72.07         -91.17          122.5          54.65
    0.4405               -54.3          26.96          38.99          64.89          1.638          16.55         -22.53          71.86         -90.56          122.2          54.62
    0.4538              -54.28          26.97          38.97          64.82          1.582          16.49         -22.13          71.62         -89.84          121.8          54.57
    0.4672              -54.25          26.97          38.96          64.74          1.516          16.42         -21.67          71.32          -89.0          121.4          54.53
    0.4805              -54.21          26.98          38.93          64.65          1.438          16.33         -21.12          70.98         -87.99          120.8          54.47
    0.4939              -54.17          26.99          38.91          64.53          1.344          16.23         -20.46          70.56         -86.79          120.2           54.4
    0.5072              -54.12           27.0          38.88           64.4           1.23          16.11         -19.66          70.06         -85.33          119.4          54.32
    0.5206              -54.06          27.02          38.84          64.23          1.091          15.95         -18.69          69.45         -83.55          118.5          54.21
    0.5339              -53.99          27.03          38.79          64.02         0.9195          15.77         -17.48          68.69         -81.36          117.3          54.09
    0.5473               -53.9          27.06          38.73          63.77         0.7058          15.54         -15.98          67.74         -78.62          115.9          53.93
    0.5606              -53.78          27.08          38.66          63.44         0.4365          15.24         -14.09          66.55         -75.16          114.1          53.73
     0.574              -53.63          27.12          38.57          63.03        0.09415          14.87         -11.68          65.04         -70.78          111.8          53.48
    0.5873              -53.45          27.16          38.45           62.5         -0.344          14.39         -8.603           63.1         -65.16          108.8          53.15
    0.6007               -53.2          27.22          38.29          61.82        -0.9063          13.78         -4.653          60.62         -57.96          105.0          52.74
     0.614              -52.89          27.29          38.09          60.96         -1.625           13.0         0.3934          57.44         -48.75          100.2          52.21
    0.6274               -52.5          27.38          37.85          59.87         -2.528          12.02          6.738          53.45         -37.18          94.06          51.55
    0.6407              -52.03           27.5          37.54          58.55         -3.628          10.82          14.47          48.59         -23.07          86.63          50.73
     0.654              -51.48          27.62          37.19          57.01         -4.904          9.437          23.43          42.95         -6.722          78.01          49.79
    0.6674              -50.88          27.77          36.82          55.35         -6.285          7.936          33.14          36.85          10.98          68.68          48.77
    0.6807              -50.29          27.91          36.44          53.68         -7.667          6.434          42.84          30.74          28.68          59.35          47.76
    0.6941              -49.73          28.03          36.09          52.14         -8.942          5.047          51.81           25.1          45.03          50.74          46.82
    0.7074              -49.26          28.15          35.78          50.82         -10.04          3.851          59.54          20.24          59.14          43.31           46.0
